<?xml version="1.0" encoding="utf-8"?>
<!-- Generator: Adobe Illustrator 19.1.0, SVG Export Plug-In . SVG Version: 6.00 Build 0)  -->
<svg version="1.1" id="Layer_1" xmlns="http://www.w3.org/2000/svg" xmlns:xlink="http://www.w3.org/1999/xlink" x="0px" y="0px"
	 viewBox="0 0 2000 600" style="enable-background:new 0 0 2000 600;" xml:space="preserve">
<style type="text/css">
	.st0{fill:#FAA51A;}
	.st1{fill:#F78C1F;}
	.st2{fill:#FFFFFF;}
</style>
<g id="frame1">
	<g>
		<g>
			<path class="st0" d="M0,337.6l60.5-90.8L0,156.1h45.4l60.5,90.8l-60.5,90.7H0z"/>
			<path class="st0" d="M60.5,337.6l60.5-90.8l-60.5-90.7h45.4l121,181.5h-45.4l-37.8-56.7l-37.8,56.7H60.5z"/>
			<path class="st0" d="M206.7,284.7l-20.2-30.2h70.6v30.2H206.7z"/>
			<path class="st0" d="M176.5,239.3l-20.2-30.2h100.8v30.2H176.5z"/>
		</g>
	</g>
</g>
<g id="frame2_1_">
	<g id="frame2">
		<g>
			<g>
				<path class="st0" d="M257.2,337.6l60.5-90.8l-60.5-90.7h45.4l60.5,90.8l-60.5,90.7H257.2z"/>
				<path class="st0" d="M317.6,337.6l60.5-90.8l-60.5-90.7H363l121,181.5h-45.4l-37.8-56.7L363,337.6H317.6z"/>
				<path class="st0" d="M463.9,284.7l-20.2-30.2h70.6v30.2H463.9z"/>
				<path class="st0" d="M433.6,239.3l-20.2-30.2h100.8v30.2H433.6z"/>
			</g>
		</g>
	</g>
	<g>
		<path class="st1" d="M475.4,277.1c-7.8-0.4-13.6-1.5-18.6-3l7,10.5h50.4v-15C501.8,274.2,487.9,277.7,475.4,277.1z"/>
		<path class="st1" d="M397,264.6c-15.6,1.4-26.3,3.7-34.8,6.3l-44.5,66.8H363l37.8-56.7l37.8,56.7h45.4L437,267
			C428.3,264.5,417,262.8,397,264.6z"/>
		<path class="st1" d="M313.3,283.7c-6.9,0.3-13.3-0.4-19.2-1.5l-37,55.5h45.4l39.7-59.6C334.4,280.9,326.2,283.2,313.3,283.7z"/>
	</g>
</g>
<g id="frame3_2_">
	<g id="frame3_1_">
		<g>
			<g>
				<path class="st0" d="M514.3,337.6l60.5-90.8l-60.5-90.7h45.4l60.5,90.8l-60.5,90.7H514.3z"/>
				<path class="st0" d="M574.8,337.6l60.5-90.8l-60.5-90.7h45.4l121,181.5h-45.4L658,280.9l-37.8,56.7H574.8z"/>
			</g>
		</g>
	</g>
	<g id="frame3">
		<g id="frame2_3_">
			<g>
				<g>
					<path class="st1" d="M721,284.7l-20.2-30.2h70.6v30.2H721z"/>
					<path class="st1" d="M690.8,239.3l-20.2-30.2h100.8v30.2H690.8z"/>
				</g>
			</g>
		</g>
	</g>
	<path class="st1" d="M601.6,196.3l33.7,50.6l-60.5,90.8h45.4l37.8-56.7l37.8,56.7h45.4l-85.4-128
		C630.1,209.1,617.7,200.6,601.6,196.3z"/>
	<path class="st1" d="M620.2,246.9l-35.3-53c-1.5,0-3.1,0-4.7,0c-13,0.5-25.7,3.2-36.5,6.3l31.1,46.7l-60.5,90.8h45.4L620.2,246.9z"
		/>
</g>
<g id="frame4">
	<g>
		<g>
			<path class="st1" d="M771.5,337.6l60.5-90.8l-60.5-90.7h45.4l60.5,90.8l-60.5,90.7H771.5z"/>
			<path class="st1" d="M831.9,337.6l60.5-90.8l-60.5-90.7h45.4l121,181.5H953l-37.8-56.7l-37.8,56.7H831.9z"/>
			<path class="st1" d="M978.2,284.7L958,254.4h70.6v30.2H978.2z"/>
			<path class="st1" d="M947.9,239.3l-20.2-30.2h100.8v30.2H947.9z"/>
		</g>
	</g>
</g>
<g id="frame5_1_">
	<g id="frame5">
		<g>
			<g>
				<path class="st1" d="M1028.6,337.6l60.5-90.8l-60.5-90.7h45.4l60.5,90.8l-60.5,90.7H1028.6z"/>
				<path class="st1" d="M1089.1,337.6l60.5-90.8l-60.5-90.7h45.4l121,181.5h-45.4l-37.8-56.7l-37.8,56.7H1089.1z"/>
				<path class="st1" d="M1235.3,284.7l-20.2-30.2h70.6v30.2H1235.3z"/>
				<path class="st1" d="M1205.1,239.3l-20.2-30.2h100.8v30.2H1205.1z"/>
			</g>
		</g>
	</g>
	<path class="st0" d="M1245,274.2c-6.2,0-11.8-0.2-17.1-0.6l7.4,11.2h50.4v-13.1C1277.1,273.1,1264.2,274.2,1245,274.2z"/>
	<path class="st0" d="M1172.3,280.9l37.8,56.7h45.4l-44-66c-23.3-3.7-41-10.4-69.3-13.6l-53.1,79.6h45.4L1172.3,280.9z"/>
	<path class="st0" d="M1127.9,256.8c-6-0.4-12.5-0.6-19.6-0.6c-9.5,0-18.3,0.5-26.3,1.3l-53.4,80.1h45.4L1127.9,256.8z"/>
</g>
<g id="frame6">
	<g id="frame4_1_">
		<g>
			<g>
				<path class="st1" d="M1285.8,337.6l60.5-90.8l-60.5-90.7h45.4l60.5,90.8l-60.5,90.7H1285.8z"/>
				<path class="st1" d="M1346.2,337.6l60.5-90.8l-60.5-90.7h45.4l121,181.5h-45.4l-37.8-56.7l-37.8,56.7H1346.2z"/>
				<path class="st0" d="M1492.5,284.7l-20.2-30.2h70.6v30.2H1492.5z"/>
				<path class="st0" d="M1462.2,239.3l-20.2-30.2h100.8v30.2H1462.2z"/>
			</g>
		</g>
	</g>
	<path class="st0" d="M1375.7,200.3l31,46.5l-60.5,90.8h45.4l37.8-56.7l37.8,56.7h45.4l-99.4-149
		C1402.3,192.6,1389.1,196.9,1375.7,200.3z"/>
	<path class="st0" d="M1331.1,337.6l60.5-90.7l-29.2-43.7c-13.8,2-30.3,1.4-45.4,0l29.2,43.7l-60.5,90.8H1331.1z"/>
</g>
<g id="surface0">
	<g>
		<g>
			<path class="st2" d="M1542.9,337.6l60.5-90.8l-60.5-90.7h45.4l60.5,90.8l-60.5,90.7H1542.9z"/>
			<path class="st2" d="M1603.4,337.6l60.5-90.8l-60.5-90.7h45.4l121,181.5h-45.4l-37.8-56.7l-37.8,56.7H1603.4z"/>
			<path class="st2" d="M1749.6,284.7l-20.2-30.2h70.6v30.2H1749.6z"/>
			<path class="st2" d="M1719.4,239.3l-20.2-30.2h100.8v30.2H1719.4z"/>
		</g>
	</g>
</g>
</svg>
